<svg width="24" height="22" viewBox="0 0 24 22" fill="none" xmlns="http://www.w3.org/2000/svg">
<path d="M11.2206 17.9926H13.2135V16.6695C14.1626 16.5107 14.9787 16.1667 15.662 15.6374C16.3453 15.1082 16.687 14.3231 16.687 13.2823C16.687 12.5413 16.4592 11.8621 16.0037 11.2447C15.5481 10.6272 14.6371 10.0891 13.2705 9.63046C12.1316 9.27763 11.3439 8.9689 10.9074 8.70427C10.4708 8.43965 10.2526 8.07799 10.2526 7.61931C10.2526 7.16062 10.4281 6.79897 10.7793 6.53435C11.1304 6.26972 11.6381 6.13741 12.3025 6.13741C12.9098 6.13741 13.3844 6.27413 13.726 6.54758C14.0677 6.82102 14.3144 7.16062 14.4663 7.56638L16.2884 6.87836C16.0796 6.2609 15.6952 5.72283 15.1353 5.26415C14.5754 4.80546 13.9538 4.54966 13.2705 4.49673V3.17361H11.2775V4.49673C10.3285 4.69079 9.58825 5.07891 9.05679 5.66108C8.52533 6.24326 8.2596 6.896 8.2596 7.61931C8.2596 8.44847 8.52059 9.11885 9.04255 9.63046C9.56452 10.1421 10.3854 10.5831 11.5053 10.9536C12.7011 11.3593 13.5315 11.721 13.9965 12.0385C14.4615 12.3561 14.694 12.7707 14.694 13.2823C14.694 13.8645 14.471 14.2923 14.025 14.5657C13.5789 14.8392 13.0427 14.9759 12.4164 14.9759C11.79 14.9759 11.2348 14.7951 10.7508 14.4334C10.2668 14.0717 9.91091 13.5293 9.68315 12.806L7.80407 13.494C8.0698 14.3408 8.48263 15.0244 9.04255 15.5448C9.60248 16.0653 10.3285 16.4225 11.2206 16.6166V17.9926ZM12.2455 21.1681C10.6701 21.1681 9.18965 20.8903 7.80407 20.3345C6.41849 19.7788 5.21322 19.0246 4.18827 18.072C3.16332 17.1193 2.3519 15.9991 1.75401 14.7113C1.15612 13.4234 0.857178 12.0474 0.857178 10.5831C0.857178 9.11885 1.15612 7.7428 1.75401 6.45496C2.3519 5.16712 3.16332 4.04687 4.18827 3.09422C5.21322 2.14157 6.41849 1.38739 7.80407 0.831677C9.18965 0.275964 10.6701 -0.00189209 12.2455 -0.00189209C13.8209 -0.00189209 15.3014 0.275964 16.687 0.831677C18.0726 1.38739 19.2778 2.14157 20.3028 3.09422C21.3277 4.04687 22.1392 5.16712 22.737 6.45496C23.3349 7.7428 23.6339 9.11885 23.6339 10.5831C23.6339 12.0474 23.3349 13.4234 22.737 14.7113C22.1392 15.9991 21.3277 17.1193 20.3028 18.072C19.2778 19.0246 18.0726 19.7788 16.687 20.3345C15.3014 20.8903 13.8209 21.1681 12.2455 21.1681Z" fill="white"/>
</svg>
