<svg width="31" height="22" viewBox="0 0 31 22" fill="none" xmlns="http://www.w3.org/2000/svg">
<path d="M11.9762 20.8932L11.9676 20.8897L11.9408 20.8757C11.784 20.7931 11.6284 20.7083 11.4741 20.6214C9.61894 19.5661 7.88528 18.3265 6.30184 16.923C3.49758 14.4182 0.526367 10.7012 0.526367 6.12319C0.526367 2.70719 3.52927 -0.00180931 7.15372 -0.00180931C8.16129 -0.00653364 9.15701 0.206255 10.0668 0.62073C10.9766 1.03521 11.7772 1.6407 12.4088 2.39219C13.0406 1.64055 13.8413 1.03496 14.7513 0.620476C15.6614 0.205994 16.6573 -0.00670932 17.6651 -0.00180931C21.2883 -0.00180931 24.2912 2.70719 24.2912 6.12319C24.2912 10.7024 21.32 14.4194 18.5158 16.9219C16.9324 18.3253 15.1987 19.565 13.3436 20.6202C13.1893 20.7075 13.0337 20.7927 12.8768 20.8757L12.85 20.8897L12.8414 20.8944L12.8378 20.8955C12.7056 20.9625 12.5584 20.9976 12.4088 20.9976C12.2593 20.9976 12.112 20.9625 11.9798 20.8955L11.9762 20.8932Z" fill="white"/>
<path d="M22.7436 18.9649L26.0759 12.7316H23.7777V8.69823L20.3305 14.9316H22.7436V18.9649ZM23.2032 21.1649C22.1435 21.1649 21.1476 20.9724 20.2156 20.5874C19.2836 20.2024 18.4729 19.6799 17.7834 19.0199C17.094 18.3599 16.5482 17.5838 16.146 16.6916C15.7438 15.7993 15.5427 14.846 15.5427 13.8316C15.5427 12.8171 15.7438 11.8638 16.146 10.9716C16.5482 10.0793 17.094 9.30323 17.7834 8.64323C18.4729 7.98323 19.2836 7.46073 20.2156 7.07573C21.1476 6.69073 22.1435 6.49823 23.2032 6.49823C24.2629 6.49823 25.2588 6.69073 26.1908 7.07573C27.1228 7.46073 27.9335 7.98323 28.623 8.64323C29.3124 9.30323 29.8582 10.0793 30.2604 10.9716C30.6626 11.8638 30.8637 12.8171 30.8637 13.8316C30.8637 14.846 30.6626 15.7993 30.2604 16.6916C29.8582 17.5838 29.3124 18.3599 28.623 19.0199C27.9335 19.6799 27.1228 20.2024 26.1908 20.5874C25.2588 20.9724 24.2629 21.1649 23.2032 21.1649Z" fill="#894189"/>
<path d="M23.1336 18.4982L26.163 12.8315H24.0738V9.16486L20.9399 14.8315H23.1336V18.4982ZM23.5515 20.4982C22.5881 20.4982 21.6828 20.3232 20.8355 19.9732C19.9882 19.6232 19.2512 19.1482 18.6244 18.5482C17.9976 17.9482 17.5014 17.2426 17.1358 16.4315C16.7702 15.6204 16.5874 14.7537 16.5874 13.8315C16.5874 12.9093 16.7702 12.0426 17.1358 11.2315C17.5014 10.4204 17.9976 9.71486 18.6244 9.11486C19.2512 8.51486 19.9882 8.03986 20.8355 7.68986C21.6828 7.33986 22.5881 7.16486 23.5515 7.16486C24.5148 7.16486 25.4202 7.33986 26.2675 7.68986C27.1147 8.03986 27.8518 8.51486 28.4785 9.11486C29.1053 9.71486 29.6015 10.4204 29.9671 11.2315C30.3327 12.0426 30.5155 12.9093 30.5155 13.8315C30.5155 14.7537 30.3327 15.6204 29.9671 16.4315C29.6015 17.2426 29.1053 17.9482 28.4785 18.5482C27.8518 19.1482 27.1147 19.6232 26.2675 19.9732C25.4202 20.3232 24.5148 20.4982 23.5515 20.4982Z" fill="white"/>
</svg>
